<svg width="16" height="16" viewBox="0 0 16 16" fill="none" xmlns="http://www.w3.org/2000/svg">
<path d="M13.3334 5.33337H11.3334V4.14003C11.3334 2.40003 10.0601 0.846699 8.32675 0.680032C6.34008 0.493365 4.66675 2.05337 4.66675 4.00003V5.33337H2.66675V14.6667H13.3334V5.33337ZM8.00008 11.3334C7.26675 11.3334 6.66675 10.7334 6.66675 10C6.66675 9.2667 7.26675 8.6667 8.00008 8.6667C8.73341 8.6667 9.33341 9.2667 9.33341 10C9.33341 10.7334 8.73341 11.3334 8.00008 11.3334ZM6.00008 5.33337V4.00003C6.00008 2.89337 6.89341 2.00003 8.00008 2.00003C9.10675 2.00003 10.0001 2.89337 10.0001 4.00003V5.33337H6.00008Z" fill="#98989E"/>
</svg>
